PathFileType	4	(X/Y/Z)	C:\Users\Basilio\Documents\Thesis Gigler\squatting_fais\c3dfiles\073\SLS_front_pre2\markers_experimental.trc
DataRate	CameraRate	NumFrames	NumMarkers	Units	OrigDataRate	OrigDataStartFrame	OrigNumFrames
200.000000	200.000000	4	61	mm	200.000000	996	1328
Frame#	Time	FHD			LBHD			RBHD			C7			T10			CLAV			LSHO			LUUPA			LMUPA			LDUPA			LLEP			LMEP			LRAD			LUL			LRFIN			RSHO			RUPA1			RMUPA			RDUPA			RLEP			RMEP			RRAD			RUL			RUFIN			LASI			RASI			USACR			LSACR			RSACR			LTHI1			LTHI2			LTHI3			LTHI4			LLFC			LMFC			LTIB1			LTIB2			LTIB3			LTIB4			LLMAL			LMMAL			LHEE			LMT1			LMT2			LMT5			RTHI			RTHI2			RTHI3			RTHI4			RLFC			RMFC			RTIB1			RTIB2			RTIB3			RTIB4			RLMAL			RMMAL			RHEE			RMT1			RMT2			RMT5			
		X1	Y1	Z1	X2	Y2	Z2	X3	Y3	Z3	X4	Y4	Z4	X5	Y5	Z5	X6	Y6	Z6	X7	Y7	Z7	X8	Y8	Z8	X9	Y9	Z9	X10	Y10	Z10	X11	Y11	Z11	X12	Y12	Z12	X13	Y13	Z13	X14	Y14	Z14	X15	Y15	Z15	X16	Y16	Z16	X17	Y17	Z17	X18	Y18	Z18	X19	Y19	Z19	X20	Y20	Z20	X21	Y21	Z21	X22	Y22	Z22	X23	Y23	Z23	X24	Y24	Z24	X25	Y25	Z25	X26	Y26	Z26	X27	Y27	Z27	X28	Y28	Z28	X29	Y29	Z29	X30	Y30	Z30	X31	Y31	Z31	X32	Y32	Z32	X33	Y33	Z33	X34	Y34	Z34	X35	Y35	Z35	X36	Y36	Z36	X37	Y37	Z37	X38	Y38	Z38	X39	Y39	Z39	X40	Y40	Z40	X41	Y41	Z41	X42	Y42	Z42	X43	Y43	Z43	X44	Y44	Z44	X45	Y45	Z45	X46	Y46	Z46	X47	Y47	Z47	X48	Y48	Z48	X49	Y49	Z49	X50	Y50	Z50	X51	Y51	Z51	X52	Y52	Z52	X53	Y53	Z53	X54	Y54	Z54	X55	Y55	Z55	X56	Y56	Z56	X57	Y57	Z57	X58	Y58	Z58	X59	Y59	Z59	X60	Y60	Z60	X61	Y61	Z61	

997	4.98	-161.3922729492188	1687.134643554688	-806.3513793945315	-294.8554687500001	1649.884765625	-827.3310546875002	-314.0688781738282	1633.286987304688	-692.9598388671876	-337.8390808105469	1540.23974609375	-753.8227539062501	-451.7550354003907	1224.874755859375	-740.4373779296876	-225.1102905273438	1439.41650390625	-756.1580810546876	-248.3339080810547	1477.265380859375	-906.0244750976565	-184.5213928222657	1379.018432617188	-996.8579711914065	-139.3914794921875	1392.628051757813	-977.7252197265627	-128.6507110595703	1339.768310546875	-1006.695068359375	-31.20076560974122	1295.689331054688	-1012.493957519531	-43.58030700683594	1243.711791992188	-964.6414184570315	228.5583953857422	1283.793090820313	-899.6414794921877	232.2306671142579	1277.364379882813	-973.725769042969	310.8493652343751	1284.620971679688	-893.489440917969	-226.6372680664063	1476.70849609375	-610.3229980468751	-150.1440734863282	1358.479248046875	-513.0322265625001	-107.7726593017578	1372.922973632813	-530.6580810546876	-93.36696624755861	1319.454345703125	-507.9249267578126	-6.030204296112062	1285.952026367188	-509.9096679687501	-21.87460708618164	1232.135009765625	-572.1182861328126	238.7157592773438	1277.590698242188	-646.9236450195314	254.2983551025391	1287.50341796875	-572.5298461914064	328.4252624511719	1290.232421875	-658.5358886718751	-321.1982421875001	1059.599853515625	-883.8005371093752	-295.9376525878907	1030.070190429688	-633.5610351562501	-486.0704345703126	1108.555297851563	-737.9308471679689	-501.6725158691407	1082.50341796875	-767.9071655273439	-496.9783630371095	1074.610717773438	-712.3684692382814	-196.1163330078126	810.3076782226565	-935.385437011719	-125.0517044067383	772.2618408203127	-909.5361328125002	-101.109245300293	798.5253906250002	-874.6958007812502	-115.1109313964844	714.4743041992189	-903.7464599609377	-80.28957366943361	667.4663696289064	-903.2984619140627	-96.23564910888675	653.6568603515626	-765.7172241210939	54.20499420166017	518.0996704101564	-846.592712402344	28.76560974121094	458.3636474609376	-905.8674926757815	65.04551696777345	470.3775939941407	-880.2534790039065	100.6227569580078	400.4712829589845	-847.5720214843752	105.3781127929688	268.2435302734376	-880.6475830078127	95.75530242919923	288.5953979492188	-795.598815917969	67.9335403442383	207.8713378906251	-844.6875000000002	259.9776916503907	310.1670532226563	-782.5516357421877	264.3720092773438	314.4016723632813	-821.0744628906252	249.0109863281251	280.6540832519532	-878.3164062500002	-375.3322753906251	789.2041625976565	-587.3739013671876	-335.4364929199219	736.7222900390626	-587.8327026367189	-301.8370361328126	741.0128173828126	-588.4956665039064	-352.8621520996094	660.1325683593751	-617.6803588867189	-323.3106079101563	514.4171752929689	-641.6714477539064	-309.8622741699219	515.0814819335939	-772.0227050781252	-281.5466918945313	359.6936950683594	-742.6803588867189	-312.3746948242188	273.7652587890626	-684.9802856445314	-285.9634399414063	274.6472473144532	-725.5112915039064	-305.3792114257813	234.1271667480469	-763.0011596679689	-365.0301818847657	103.5346069335938	-725.2416381835939	-354.5194091796876	130.7518157958985	-808.8020019531252	-433.023406982422	85.69580841064455	-783.4568481445315	-208.6579132080079	54.29475021362306	-786.7031860351565	-210.5164031982422	51.63995742797853	-745.6472167968751	-256.3779907226563	34.64913177490235	-700.1840820312501	
998	4.985	-161.8386840820313	1688.089477539063	-806.2100830078127	-295.3008728027344	1650.821533203125	-827.219909667969	-314.5622558593751	1634.033813476563	-692.8195800781251	-338.3783264160157	1540.915283203125	-753.7254638671876	-451.3227844238282	1225.136474609375	-740.2604370117189	-225.3840789794922	1440.506591796875	-756.1204223632814	-248.8313751220704	1478.014526367188	-906.1162109375002	-184.8533935546875	1379.841552734375	-996.9250488281252	-139.7584991455078	1393.406372070313	-977.7495727539065	-129.28125	1340.52783203125	-1006.823608398438	-31.71038055419923	1296.5322265625	-1012.546447753906	-44.0337257385254	1244.53662109375	-964.8604736328127	228.2900085449219	1284.369140625	-899.8447875976565	231.9993286132813	1277.98583984375	-974.1334228515627	310.3494567871094	1285.044189453125	-893.7217407226565	-226.9883117675782	1477.600708007813	-610.1425170898439	-150.6168212890625	1359.029052734375	-512.9803466796876	-108.1533203125	1373.490478515625	-530.5407104492189	-93.76062774658205	1319.974853515625	-507.9135131835939	-6.458645820617678	1286.473754882813	-509.9031066894532	-22.40946006774903	1232.576416015625	-572.0558471679689	238.452621459961	1277.965576171875	-647.0728149414064	253.8570098876954	1287.777465820313	-572.4078369140626	327.9826049804688	1290.539184570313	-658.3179931640626	-320.2496948242188	1060.27978515625	-883.7011718750002	-295.1093139648438	1030.619262695313	-633.4625244140626	-485.2410583496095	1109.009887695313	-737.7677612304689	-501.0615844726564	1083.103515625	-767.8236083984376	-496.241912841797	1075.081298828125	-712.3912353515626	-196.0738372802735	810.205017089844	-935.451599121094	-125.0656509399414	771.8645019531252	-909.6186523437502	-100.9853668212891	798.0647583007815	-874.8444824218752	-115.3472290039063	714.0371093750001	-903.8129882812502	-80.72618865966798	666.9094238281251	-903.436218261719	-96.58100128173831	653.2730102539064	-765.8507690429689	53.16041183471681	517.0645751953126	-846.7846679687502	27.98651504516602	457.3717041015626	-905.617370605469	63.86105346679689	469.4176635742189	-880.3477172851565	99.06574249267581	399.2007751464845	-847.625427246094	103.1566619873047	267.0371704101563	-880.8535156250002	93.77828979492189	287.4121093750001	-795.955505371094	65.69776153564455	206.7105255126954	-844.760681152344	258.1801452636719	308.2998352050782	-782.723571777344	262.5538330078126	312.6781616210938	-821.374206542969	247.0238647460938	278.8159790039063	-878.577575683594	-375.5872497558594	789.7713012695315	-587.4254760742189	-335.7855834960938	737.0077514648439	-588.4179077148439	-302.3681945800782	741.2626342773439	-588.4599609375001	-353.7825927734376	660.6002197265626	-617.7014160156251	-324.7359313964844	514.6802368164064	-641.8259277343751	-311.2790222167969	515.2671508789064	-772.1828613281252	-282.2604675292969	360.1444091796876	-742.6365356445314	-313.1518859863282	274.0046081542969	-684.8624877929689	-286.6109313964844	274.9627685546876	-725.4244384765626	-305.9489440917969	234.2876281738282	-762.9147949218751	-365.1702880859376	103.5414810180664	-725.1781005859376	-354.5970764160157	130.7451629638672	-808.6865234375002	-433.0614624023439	85.65726470947267	-783.4450683593752	-208.6759948730469	54.30741119384767	-786.6541137695315	-210.5053253173829	51.59604263305665	-745.7093505859376	-256.4310607910157	34.63410949707032	-700.1722412109376	
999	4.99	-162.2778778076172	1689.08642578125	-806.128112792969	-295.9660644531251	1651.765869140625	-827.090515136719	-315.1809997558594	1634.943969726563	-692.6137695312501	-338.9393005371094	1541.591552734375	-753.6077880859376	-450.8627319335939	1225.409301757813	-740.0795898437501	-225.5501556396485	1441.529418945313	-756.0776367187501	-249.2972869873047	1478.820434570313	-906.1339111328127	-185.2508087158203	1380.642456054688	-996.961120605469	-140.1137237548828	1394.12353515625	-977.7392578125002	-129.6575775146485	1341.398681640625	-1006.908996582031	-32.00236129760743	1297.296997070313	-1012.646423339844	-44.43833541870118	1245.242065429688	-964.938903808594	228.0315093994141	1284.900756835938	-900.0170898437502	231.5842285156251	1278.509033203125	-974.4053955078127	309.9996643066407	1285.458129882813	-894.0075683593752	-227.3322143554688	1478.423461914063	-609.9683227539064	-150.9924011230469	1359.656494140625	-512.9500732421876	-108.5671157836914	1373.98583984375	-530.4282226562501	-94.16572570800783	1320.514526367188	-507.829803466797	-6.982116222381594	1286.892456054688	-509.970428466797	-22.87126922607422	1233.1142578125	-572.0823364257814	238.034164428711	1278.25439453125	-646.9602661132814	253.4456939697266	1288.05712890625	-572.2719726562501	327.5557861328126	1290.875	-658.2067871093751	-319.5138244628907	1060.884399414063	-883.666198730469	-294.2257385253907	1031.13037109375	-633.4684448242189	-484.5599365234376	1109.515625	-737.7512207031251	-500.324920654297	1083.691162109375	-767.7788696289064	-495.5767517089845	1075.517944335938	-712.2815551757814	-196.0278930664063	810.0828247070315	-935.4991455078127	-125.1473846435547	771.4686279296877	-909.683776855469	-100.8907928466797	797.5748291015627	-875.0129394531252	-115.6055068969727	713.5836181640626	-903.9055175781252	-81.27530670166017	666.3828125000001	-903.5520629882815	-96.93611907958987	652.8813476562501	-765.9248046875001	52.16530609130861	516.0684204101564	-846.9276123046877	26.67868423461915	456.367645263672	-905.783630371094	62.65284729003908	468.2916259765626	-880.501647949219	97.68408966064456	397.9439697265626	-848.0565185546877	101.1930007934571	265.7472839355469	-881.0198364257815	91.92676544189455	286.1561584472657	-795.865661621094	63.42769241333009	205.6385650634766	-844.8547363281252	256.4514465332032	306.4278564453126	-783.141052246094	260.7902221679688	310.7821960449219	-821.622253417969	244.9458160400391	277.0014648437501	-878.8921508789065	-375.8428649902344	790.3566894531252	-587.4602661132814	-336.3576660156251	737.3483886718751	-588.5542602539064	-302.8168945312501	741.4207763671876	-588.3995971679689	-354.7511291503907	660.9885864257814	-617.8453979492189	-326.2049255371094	514.9920043945314	-641.8551025390626	-312.7082519531251	515.4298706054689	-772.1688232421877	-283.4849548339844	360.4483947753907	-742.4591064453126	-313.9365844726563	274.2768249511719	-684.7511596679689	-287.3536071777344	275.1995544433594	-725.2841186523439	-306.3971557617188	234.4757843017579	-762.8429565429689	-365.2772827148438	103.528549194336	-725.1329345703126	-354.6542053222657	130.788803100586	-808.638122558594	-433.0818481445314	85.66294097900392	-783.4810180664065	-208.6719970703126	54.32150650024415	-786.635192871094	-210.4999542236329	51.53643035888673	-745.7435913085939	-256.4081420898438	34.61265182495118	-700.1953735351564	
1000	4.995	-162.9807891845703	1690.001831054688	-805.9641113281252	-296.5219116210938	1652.734985351563	-827.0166015625002	-315.7426757812501	1635.9755859375	-692.6933593750001	-339.5283813476563	1542.363403320313	-753.5370483398439	-450.3063964843751	1225.707763671875	-739.9553222656251	-225.9385070800782	1442.48046875	-755.9852905273439	-249.6869354248047	1479.68359375	-906.165222167969	-185.5311889648438	1381.475708007813	-996.9138183593752	-140.48291015625	1394.988891601563	-977.7739257812502	-129.7792358398438	1342.217407226563	-1006.859985351563	-32.31063461303712	1298.151733398438	-1012.713012695313	-44.66095352172852	1245.94580078125	-965.1013793945315	227.7939453125001	1285.489379882813	-900.2947998046877	231.1334991455079	1279.087890625	-974.5548095703127	309.5479736328126	1285.905639648438	-894.2180786132815	-227.6794586181641	1479.26171875	-609.7157592773439	-151.3471984863282	1360.186157226563	-512.9223022460939	-108.9264221191407	1374.542724609375	-530.2900390625001	-94.60153198242189	1321.069213867188	-507.8157958984376	-7.424934864044191	1287.27099609375	-509.8736267089845	-23.32494735717774	1233.609985351563	-572.1696777343751	237.8012390136719	1278.843017578125	-646.9914550781251	252.9466552734376	1288.250610351563	-572.1188354492189	327.0941772460938	1291.15869140625	-658.0411376953126	-318.7049865722657	1061.575317382813	-883.5401000976565	-293.3378295898438	1031.57421875	-633.3339233398439	-483.9251403808595	1110.091552734375	-737.7850341796876	-499.5087890625001	1084.1982421875	-767.7778930664064	-494.7770080566407	1075.990600585938	-712.2608642578126	-196.0518951416016	809.965759277344	-935.5998535156252	-125.2817993164063	771.091247558594	-909.714782714844	-100.8978500366211	797.111267089844	-875.0913696289065	-115.9844436645508	713.1408081054689	-904.1203613281252	-81.72586059570314	665.9328002929689	-903.675720214844	-97.26562500000003	652.3788452148439	-765.9859008789064	51.14280319213869	514.9349365234376	-847.0220947265627	25.18029785156251	455.2991638183595	-906.0278930664065	61.47587966918947	467.1260681152345	-880.7601318359377	96.15153503417972	396.6372375488282	-848.2156982421877	99.20331573486331	264.4070129394532	-881.1552734375002	89.86547851562501	284.9248962402344	-796.1194458007815	61.05220413208009	204.4768524169922	-844.978942871094	254.2730865478516	304.5101623535157	-783.3465576171877	259.0175476074219	308.8569641113282	-821.8940429687502	242.9313659667969	275.1293029785157	-879.087097167969	-376.0331726074219	790.9060668945315	-587.4884643554689	-336.9319763183594	737.7209472656251	-588.4523315429689	-303.3357849121094	741.5560913085939	-588.2876586914064	-355.6736755371094	661.3924560546876	-618.0419921875001	-327.6761474609376	515.2712402343751	-642.0052490234376	-314.0397338867188	515.6248779296876	-772.4450683593752	-284.3982543945313	360.7546997070313	-742.4086303710939	-314.7926635742188	274.4739074707032	-684.7304077148439	-288.1261596679688	275.5074768066407	-725.1029052734376	-306.8807678222657	234.740463256836	-762.7186889648439	-365.3676757812501	103.5115814208985	-725.1336669921876	-354.6951599121094	130.8126678466797	-808.5800781250002	-433.0826110839845	85.6498260498047	-783.4732666015627	-208.6862182617188	54.33449554443361	-786.5771484375002	-210.4967346191407	51.51577377319337	-745.7705688476564	-256.4068298339844	34.60095977783204	-700.1654663085939	
